<svg width="28" height="28" viewBox="0 0 28 28" fill="none" xmlns="http://www.w3.org/2000/svg">
<path fill-rule="evenodd" clip-rule="evenodd" d="M14 27C21.1797 27 27 21.1797 27 14C27 6.8203 21.1797 1 14 1C6.8203 1 1 6.8203 1 14C1 21.1797 6.8203 27 14 27Z" stroke="black" stroke-width="1.5"/>
<path d="M18.75 8L16.5 15.5H10.5L9 11H17.85" stroke="black" stroke-width="1.5" stroke-linecap="round" stroke-linejoin="round"/>
<path d="M11.25 18.125C11.25 18.3321 11.0821 18.5 10.875 18.5" stroke="black" stroke-width="1.5" stroke-linecap="round" stroke-linejoin="round"/>
<path d="M16.5 18.125C16.5 18.3321 16.3321 18.5 16.125 18.5" stroke="black" stroke-width="1.5" stroke-linecap="round" stroke-linejoin="round"/>
<path d="M10.875 18.746C11.0821 18.746 11.25 18.9139 11.25 19.121" stroke="black" stroke-width="1.5" stroke-linecap="round" stroke-linejoin="round"/>
<path d="M10.5 19.125C10.4989 19.0248 10.538 18.9284 10.6084 18.8572C10.6789 18.786 10.7749 18.746 10.875 18.746" stroke="black" stroke-width="1.5" stroke-linecap="round" stroke-linejoin="round"/>
<path d="M10.875 19.5C10.6679 19.5 10.5 19.3321 10.5 19.125" stroke="black" stroke-width="1.5" stroke-linecap="round" stroke-linejoin="round"/>
<path d="M16.125 18.746C16.3321 18.746 16.5 18.9139 16.5 19.121" stroke="black" stroke-width="1.5" stroke-linecap="round" stroke-linejoin="round"/>
<path d="M15.75 19.125C15.7489 19.0248 15.788 18.9284 15.8584 18.8572C15.9289 18.786 16.0249 18.746 16.125 18.746" stroke="black" stroke-width="1.5" stroke-linecap="round" stroke-linejoin="round"/>
<path d="M16.125 19.5C15.9179 19.5 15.75 19.3321 15.75 19.125" stroke="black" stroke-width="1.5" stroke-linecap="round" stroke-linejoin="round"/>
</svg>
