<svg width="31" height="31" viewBox="0 0 31 31" fill="none" xmlns="http://www.w3.org/2000/svg">
<path d="M27.6493 0.5H3.21493C1.72172 0.5 0.5 1.72172 0.5 3.21493V27.6493C0.5 29.1425 1.72172 30.3643 3.21493 30.3643H16.7896V18.1471H12.7172V14.0747H16.7896V11.9027C16.7896 7.69457 18.8258 5.92986 22.2194 5.92986C23.8484 5.92986 24.7987 6.06562 25.2059 6.06562V10.0022H22.8981C21.4051 10.0022 20.862 10.8167 20.862 12.3099V14.0747H25.2059L24.6629 18.1471H20.9978V30.3643H27.785C29.2782 30.3643 30.5 29.1425 30.5 27.6493V3.21493C30.3643 1.72172 29.1425 0.5 27.6493 0.5Z" fill="#B8B8BD"/>
</svg>
