<svg width="31" height="31" viewBox="0 0 31 31" fill="none" xmlns="http://www.w3.org/2000/svg">
<path fill-rule="evenodd" clip-rule="evenodd" d="M0.5 9.24995C0.5 4.375 4.375 0.5 9.24995 0.5H21.75C26.625 0.5 30.5 4.375 30.5 9.24995V21.75C30.5 26.625 26.625 30.5 21.75 30.5H9.24995C4.375 30.5 0.5 26.625 0.5 21.75V9.24995ZM25.5 6.75001C25.5 6.00001 25 5.5 24.25 5.5C23.5 5.5 23 6.00001 23 6.75001C23 7.50001 23.5 8 24.25 8C25 8 25.5 7.50001 25.5 6.75001ZM15.5 8C19.625 8 23 11.375 23 15.5C23 19.625 19.625 23 15.5 23C11.375 23 8 19.625 8 15.5C8 11.375 11.375 8 15.5 8ZM10.5 15.5C10.5 12.75 12.75 10.5 15.5 10.5C18.25 10.5 20.5 12.75 20.5 15.5C20.5 18.25 18.25 20.5 15.5 20.5C12.75 20.5 10.5 18.25 10.5 15.5Z" fill="#B8B8BD"/>
</svg>
