<svg width="31" height="25" viewBox="0 0 31 25" fill="none" xmlns="http://www.w3.org/2000/svg">
<path d="M3.24283 10.0747C3.17058 9.80493 3.11642 9.53386 3.06284 9.26007C3.02027 8.98799 2.87313 8.74329 2.65276 8.57813C2.4324 8.41296 2.15625 8.34039 1.88315 8.37588C1.61006 8.41136 1.36162 8.5521 1.19079 8.7681C1.01996 8.9841 0.940236 9.25828 0.968618 9.5322C0.997001 9.80613 1.13124 10.0581 1.34273 10.2345C1.55422 10.4109 1.82624 10.4977 2.1008 10.4765C2.37537 10.4552 2.63078 10.3275 2.8126 10.1207C2.99442 9.91387 3.08826 9.6442 3.07414 9.36917C3.07398 9.304 3.06675 9.23903 3.05259 9.17541C3.03736 9.01808 3.02755 8.86033 3.02315 8.70215C3.01647 8.46097 3.02389 8.21961 3.04535 7.9793C3.0549 7.92174 3.06102 7.86367 3.06366 7.80538C3.06449 7.82593 2.99719 8.20039 3.046 7.95416C3.07332 7.81645 3.0971 7.67867 3.13078 7.54202C3.18312 7.33006 3.26084 7.12881 3.32508 6.9208C3.39738 6.68576 3.15628 7.26182 3.3272 6.92038C3.37954 6.81588 3.43094 6.71149 3.48829 6.60957C3.58897 6.43076 3.70949 6.26843 3.8203 6.09662C3.9191 5.94354 3.59709 6.35869 3.72097 6.22563C3.75495 6.18918 3.7848 6.14832 3.81742 6.11052C3.89066 6.02574 3.96669 5.9435 4.04551 5.86382C4.18281 5.72499 4.35685 5.61159 4.48674 5.46846C4.20695 5.7768 4.3333 5.58492 4.47543 5.48806C4.57663 5.41914 4.68027 5.35394 4.78637 5.29247C4.95499 5.19473 5.14429 5.12761 5.30997 5.02787C4.92768 5.25791 5.13528 5.10082 5.28783 5.04689C5.40323 5.00611 5.52001 4.96945 5.63815 4.93691C5.82851 4.88457 6.02086 4.85218 6.2138 4.81326C6.45768 4.76375 5.7966 4.84694 6.17624 4.82339C6.28752 4.8165 6.39821 4.80826 6.50978 4.80602C6.70997 4.80196 6.90739 4.81532 7.1068 4.82828C7.45248 4.85077 6.7347 4.75592 7.07601 4.82327C7.18788 4.84535 7.29975 4.86484 7.4112 4.89128C7.6118 4.93891 7.80616 5.00238 8.00104 5.06909C8.38705 5.20115 7.74033 4.93438 8.03596 5.08086C8.14317 5.13385 8.25098 5.18484 8.35602 5.24242C8.54808 5.34752 8.72489 5.47169 8.90841 5.5898C9.10959 5.71933 8.81791 5.51915 8.80119 5.50237C8.83934 5.54058 8.89069 5.57385 8.93273 5.60894C9.04306 5.70098 9.14989 5.79715 9.2532 5.89744C9.42547 6.06418 9.58115 6.24352 9.73776 6.42463C9.89968 6.61181 9.54729 6.15568 9.78286 6.48828C9.8667 6.60659 9.94672 6.72746 10.0229 6.85091C10.1652 7.08102 10.2952 7.31847 10.4124 7.56227C10.4429 7.62551 10.4686 7.6918 10.5018 7.75368C10.5997 7.93544 10.4043 7.4955 10.4827 7.70493C10.5543 7.89593 10.6276 8.08511 10.6915 8.27893C11.1346 9.62335 11.3296 11.0339 11.743 12.3867C12.2135 13.9269 12.9805 15.4072 14.2465 16.4429C15.6926 17.6257 17.4671 18.1204 19.204 17.2461C20.752 16.467 21.6512 14.7428 22.1303 13.1558L19.3494 13.5193C19.9923 14.7937 20.7606 16.1211 21.8723 17.0446C23.2976 18.2288 25.0052 18.5312 26.7192 17.7816C28.1846 17.1407 29.1532 15.9731 29.6551 14.477C30.0891 13.1833 30.1599 11.751 30.1585 10.3961C30.1572 9.06801 30.0302 7.7415 30.051 6.41368C30.0635 5.61754 29.3423 4.85583 28.5296 4.89222C27.6946 4.92961 27.0215 5.56054 27.0081 6.41368C26.9921 7.43445 27.0722 8.45521 27.101 9.47533C27.1177 10.0734 27.1234 10.6722 27.1004 11.2702C27.0894 11.558 27.0719 11.8457 27.045 12.1325C27.0332 12.2557 27.017 12.3783 27.0049 12.5014C26.984 12.7133 27.0585 12.2006 27.0162 12.4072C26.999 12.4911 26.9892 12.5769 26.9738 12.6613C26.9272 12.9233 26.8668 13.1827 26.793 13.4385C26.7571 13.561 26.7178 13.6826 26.6741 13.8025C26.6456 13.8582 26.623 13.9169 26.6069 13.9774C26.6059 13.8729 26.7499 13.6775 26.6293 13.9072C26.5347 14.0874 26.3531 14.2899 26.2887 14.4762C26.3666 14.2509 26.4719 14.2602 26.3652 14.3703C26.3256 14.4115 26.2893 14.4553 26.2494 14.4961C26.2096 14.5369 26.1687 14.5763 26.1266 14.6144C26.0941 14.6439 25.8964 14.7901 26.0559 14.6768C26.2323 14.5516 25.9782 14.7229 25.935 14.7511C25.8574 14.8022 25.7786 14.8509 25.6986 14.8975C25.6224 14.9416 25.5451 14.9836 25.4667 15.0235C25.4215 15.0463 25.1731 15.1437 25.3654 15.075C25.5469 15.0102 25.1652 15.1327 25.1075 15.1477C25.0381 15.1694 24.9668 15.1851 24.8946 15.1944C25.1078 15.1702 25.156 15.1634 25.0391 15.1739C24.9881 15.1789 24.9371 15.1819 24.886 15.1828C24.8194 15.1845 24.7524 15.1784 24.6859 15.1801C24.4699 15.186 24.7294 15.1002 24.7981 15.2021C24.772 15.1634 24.5299 15.1377 24.4689 15.1232C24.127 15.0416 24.6946 15.2639 24.3833 15.0948C24.252 15.0234 24.1277 14.9458 24.0001 14.8684C23.7604 14.723 24.0509 14.9221 24.0633 14.9254C24.0085 14.9111 23.912 14.7992 23.866 14.758C23.7473 14.652 23.6338 14.5402 23.5249 14.424C23.3997 14.2905 23.284 14.1497 23.1673 14.009C23.3811 14.2667 23.1413 13.9689 23.0691 13.8654C22.6608 13.2647 22.2957 12.6358 21.9764 11.9834C21.3633 10.768 19.5541 11.1595 19.1956 12.3469C19.144 12.5176 19.0901 12.6875 19.0287 12.8552C18.999 12.9366 18.9669 13.0168 18.9355 13.0977C19.044 12.8174 18.9671 13.0247 18.9375 13.0825C18.779 13.401 18.6009 13.7094 18.4044 14.006C18.2517 14.232 18.4083 13.9972 18.4403 13.9616C18.3923 14.0146 18.3478 14.0712 18.2995 14.1241C18.2053 14.2269 18.1026 14.3184 18.0035 14.4157C17.7899 14.6256 18.0724 14.3485 18.0778 14.3661C18.0823 14.3814 17.899 14.4874 17.8756 14.5015C17.8212 14.5349 17.7648 14.5643 17.7096 14.5963C17.4447 14.7499 17.7171 14.5455 17.7736 14.5779C17.7431 14.5603 17.4622 14.6689 17.4183 14.6812C17.166 14.7518 17.5199 14.6468 17.5479 14.6674C17.4854 14.6657 17.423 14.6687 17.361 14.6762C17.2973 14.6767 17.235 14.6711 17.1715 14.67C16.8894 14.6655 17.2834 14.6629 17.287 14.6864C17.2811 14.6493 16.8441 14.5969 16.7945 14.5437C16.9093 14.6667 17.0051 14.6456 16.8567 14.562C16.7894 14.5241 16.7205 14.4899 16.654 14.4506C16.5825 14.4085 16.2065 14.1424 16.4493 14.3332C16.1171 14.0722 15.8401 13.7631 15.5575 13.4519C15.7711 13.6871 15.4851 13.3442 15.4285 13.2566C15.3389 13.1181 15.255 12.9761 15.1768 12.8306C15.0984 12.685 15.0276 12.5362 14.9576 12.3865C14.8366 12.1281 14.9458 12.3552 14.9653 12.4065C14.9216 12.2893 14.8754 12.1735 14.8336 12.0555C14.5931 11.3771 14.4244 10.6758 14.2638 9.97509C13.9346 8.53847 13.6119 7.11144 12.9232 5.7944C11.8939 3.82618 10.0068 2.21993 7.77236 1.87084C5.66524 1.5416 3.5225 2.13768 1.97289 3.63382C0.021736 5.51756 -0.370037 8.34959 0.308589 10.8838C0.514662 11.6525 1.40207 12.1983 2.1802 11.9464C2.96916 11.6911 3.46338 10.8984 3.24283 10.0749V10.0747Z" fill="#00D5A6"/>
<path d="M17.271 21.7683C17.2934 21.3243 17.222 21.8171 17.311 21.6074C17.3638 21.4936 17.3571 21.496 17.291 21.6148L17.3948 21.4695L17.54 21.3658C17.4214 21.4318 17.419 21.4384 17.5327 21.3857C17.6508 21.3407 17.6434 21.3381 17.5106 21.3777L17.6936 21.3457L17.8766 21.3777C17.7439 21.3381 17.7365 21.3407 17.8545 21.3857C18.0465 21.4672 17.7084 21.1855 17.9925 21.4695L18.0962 21.6148C18.0301 21.4961 18.0235 21.4936 18.0762 21.6074C18.1142 21.7088 18.1213 21.7189 18.0977 21.638C18.0703 21.525 18.0764 21.5685 18.1162 21.7683C18.1162 21.875 18.0389 22.0246 18.1113 21.846C18.0265 22.0248 18.0122 22.0651 18.0686 21.9672C18.1282 21.8717 18.1028 21.9051 17.9925 22.0672C17.9186 22.1411 17.7675 22.1905 17.9378 22.1159C17.7518 22.1847 17.7139 22.2036 17.824 22.1725C17.9069 22.1527 17.894 22.1535 17.7851 22.175C17.6893 22.1602 17.3928 22.0972 17.6159 22.1861C17.4372 22.1012 17.3968 22.0869 17.4948 22.1434C17.5648 22.1875 17.5556 22.1794 17.4674 22.1191C17.4115 22.0433 17.2496 21.7998 17.3461 22.0125L17.2759 21.8461C17.3156 22.0119 17.314 21.986 17.271 21.7684C17.3111 22.562 17.9422 23.3279 18.7924 23.2898C19.5824 23.2545 20.3569 22.6198 20.3139 21.7684C20.2423 20.3502 19.1658 19.1483 17.6938 19.1483C16.2549 19.1483 15.0996 20.3487 15.0738 21.7684C15.0477 23.19 16.2925 24.3884 17.6938 24.3884C19.1673 24.3884 20.2425 23.1873 20.3139 21.7684C20.3541 20.9723 19.5854 20.2114 18.7924 20.2469C17.9338 20.2853 17.3141 20.9155 17.271 21.7683Z" fill="#00D5A6"/>
<path d="M26.1462 21.7683C26.1686 21.3243 26.0973 21.8171 26.1862 21.6074C26.239 21.4936 26.2323 21.496 26.1663 21.6148L26.27 21.4695L26.4153 21.3658C26.2966 21.4318 26.2942 21.4384 26.4079 21.3857C26.526 21.3407 26.5186 21.3381 26.3858 21.3777L26.5688 21.3457L26.7519 21.3777C26.6191 21.3381 26.6117 21.3407 26.7298 21.3857C26.9217 21.4672 26.5837 21.1855 26.8677 21.4695L26.9714 21.6148C26.9054 21.4961 26.8987 21.4936 26.9515 21.6074C26.9894 21.7088 26.9966 21.7189 26.973 21.638C26.9455 21.525 26.9517 21.5685 26.9915 21.7683C26.9915 21.875 26.9142 22.0246 26.9865 21.846C26.9017 22.0248 26.8875 22.0651 26.9439 21.9672C27.0034 21.8717 26.978 21.9051 26.8677 22.0672C26.7939 22.1411 26.6428 22.1905 26.813 22.1159C26.627 22.1847 26.5891 22.2036 26.6992 22.1725C26.7821 22.1527 26.7692 22.1535 26.6604 22.175C26.5645 22.1602 26.2681 22.0972 26.4912 22.1861C26.3125 22.1012 26.2721 22.0869 26.37 22.1434C26.44 22.1875 26.4309 22.1794 26.3427 22.1191C26.2867 22.0433 26.1248 21.7998 26.2213 22.0125L26.1512 21.8461C26.1909 22.0119 26.1892 21.986 26.1462 21.7684C26.1863 22.562 26.8174 23.3279 27.6677 23.2898C28.4576 23.2545 29.2322 22.6198 29.1892 21.7684C29.1175 20.3502 28.0411 19.1483 26.5688 19.1483C25.1299 19.1483 23.9746 20.3487 23.9488 21.7684C23.9227 23.19 25.1675 24.3884 26.5688 24.3884C28.0423 24.3884 29.1175 23.1873 29.1892 21.7684C29.2293 20.9723 28.4606 20.2114 27.6677 20.2469C26.809 20.2853 26.1892 20.9155 26.1462 21.7683Z" fill="#00D5A6"/>
<path d="M28.4664 3.89618C29.5423 3.89618 30.4145 3.02399 30.4145 1.94809C30.4145 0.872191 29.5423 0 28.4664 0C27.3905 0 26.5183 0.872191 26.5183 1.94809C26.5183 3.02399 27.3905 3.89618 28.4664 3.89618Z" fill="#00D5A6"/>
</svg>
