<svg width="33" height="27" viewBox="0 0 33 27" fill="none" xmlns="http://www.w3.org/2000/svg">
<path d="M33 3.22266C31.8399 3.73829 30.4218 4.125 29.1329 4.25391C30.5508 3.35157 31.582 2.0625 32.0976 0.515625C30.8086 1.28907 29.3907 1.80468 27.8438 2.19141C26.5546 0.90234 24.8789 0 22.9454 0C19.2071 0 16.2421 3.09375 16.2421 6.7032C16.2421 7.21875 16.2421 7.7343 16.3711 8.25C10.5703 7.99215 5.67188 5.28516 2.32032 1.28905C1.67578 2.19141 1.41797 3.48046 1.41797 4.64062C1.41797 6.9609 2.57812 9.0234 4.38282 10.3125C3.22266 10.3125 2.19141 9.9258 1.28907 9.4101C1.28907 9.4101 1.28907 9.4101 1.28907 9.5391C1.28907 12.7617 3.60938 15.5976 6.70312 16.1133C6.1875 16.2422 5.54296 16.3711 4.89843 16.3711C4.51171 16.3711 3.99609 16.3711 3.60938 16.2421C4.51171 18.9492 6.96093 20.8829 9.9258 20.8829C7.60547 22.6875 4.64062 23.7188 1.54688 23.7188C1.03125 23.7188 0.515625 23.7188 0 23.5899C2.96484 25.5234 6.57421 26.6836 10.3125 26.6836C22.8163 26.6836 29.5196 16.3712 29.5196 7.4766C29.5196 7.21875 29.5196 6.83205 29.5196 6.5742C30.9375 5.80079 32.0976 4.51171 33 3.22266Z" fill="#B8B8BD"/>
</svg>
